HIERARCHY
ROOT Hips
{
  OFFSET 0.000000 100.000000 0.000000
  CHANNELS 6 Xposition Yposition Zposition Zrotation Xrotation Yrotation
  JOINT Spine
  {
    OFFSET 0.000000 15.000000 0.000000
    CHANNELS 3 Zrotation Xrotation Yrotation
    JOINT Neck
    {
      OFFSET 0.000000 30.000000 0.000000
      CHANNELS 3 Zrotation Xrotation Yrotation
      JOINT Head
      {
        OFFSET 0.000000 10.000000 0.000000
        CHANNELS 3 Zrotation Xrotation Yrotation
        End Site
        {
          OFFSET 0.000000 15.000000 0.000000
        }
      }
    }
    JOINT LeftShoulder
    {
      OFFSET 15.000000 25.000000 0.000000
      CHANNELS 3 Zrotation Xrotation Yrotation
      JOINT LeftElbow
      {
        OFFSET 28.000000 0.000000 0.000000
        CHANNELS 3 Zrotation Xrotation Yrotation
        JOINT LeftWrist
        {
          OFFSET 24.000000 0.000000 0.000000
          CHANNELS 3 Zrotation Xrotation Yrotation
          End Site
          {
            OFFSET 12.000000 0.000000 0.000000
          }
        }
      }
    }
    JOINT RightShoulder
    {
      OFFSET -15.000000 25.000000 0.000000
      CHANNELS 3 Zrotation Xrotation Yrotation
      JOINT RightElbow
      {
        OFFSET -28.000000 0.000000 0.000000
        CHANNELS 3 Zrotation Xrotation Yrotation
        JOINT RightWrist
        {
          OFFSET -24.000000 0.000000 0.000000
          CHANNELS 3 Zrotation Xrotation Yrotation
          End Site
          {
            OFFSET -12.000000 0.000000 0.000000
          }
        }
      }
    }
  }
  JOINT LeftHip
  {
    OFFSET 10.000000 0.000000 0.000000
    CHANNELS 3 Zrotation Xrotation Yrotation
    JOINT LeftKnee
    {
      OFFSET 0.000000 -42.000000 0.000000
      CHANNELS 3 Zrotation Xrotation Yrotation
      JOINT LeftAnkle
      {
        OFFSET 0.000000 -42.000000 0.000000
        CHANNELS 3 Zrotation Xrotation Yrotation
        End Site
        {
          OFFSET 0.000000 -7.000000 12.000000
        }
      }
    }
  }
  JOINT RightHip
  {
    OFFSET -10.000000 0.000000 0.000000
    CHANNELS 3 Zrotation Xrotation Yrotation
    JOINT RightKnee
    {
      OFFSET 0.000000 -42.000000 0.000000
      CHANNELS 3 Zrotation Xrotation Yrotation
      JOINT RightAnkle
      {
        OFFSET 0.000000 -42.000000 0.000000
        CHANNELS 3 Zrotation Xrotation Yrotation
        End Site
        {
          OFFSET 0.000000 -7.000000 12.000000
        }
      }
    }
  }
}
MOTION
Frames: 11
Frame Time: 0.03333333333333333
69.979492 24.729124 0.012233 0.002878 0.019723 0.000000 0.000000 0.000000 0.000000 13.051428 -9.028735 -1.034914 105.761016 -36.995123 -64.567270 0.515721 56.880496 -6.646371 -32.340756 22.871987 -23.062635 -51.285896 -9.101132 56.259704 -89.631044 -73.520379 99.050061 -14.882143 -35.482721 13.401377 -0.997624 -2.360551 0.118020 -31.258857 16.832551 -102.957842 42.492740 -16.567635 -10.845889 -74.151189 -15.591656 38.207621 -15.986664 -41.952390 37.225515 40.590916 24.730756 -42.007584 -18.273673 -22.803344 -7.574631
63.159144 34.292486 0.022851 5.539894 -18.766340 -3.385559 0.000000 0.000000 0.000000 42.637312 -20.916059 -20.924923 80.020635 -43.922120 -38.904167 -1.436631 42.622050 -9.900352 -22.612664 15.816203 -16.051477 -35.611262 -9.893044 40.619964 -67.530071 -62.826375 96.216849 -10.935300 -28.464330 8.756214 -1.101249 -4.155783 -0.243954 -19.426734 20.596271 -44.858120 43.326658 -20.107102 -32.697464 -50.302574 -13.831003 24.285033 -8.922563 -23.650198 52.399162 27.974853 20.869767 -28.007774 -11.638910 -19.130521 -5.175675
50.154573 39.900792 0.018975 11.608345 -30.842963 -6.796142 0.000000 0.000000 0.000000 35.680702 5.349279 -10.791286 58.105271 -19.019707 -24.166947 -19.512255 22.630374 -21.599185 -12.434609 6.400228 -21.148478 -24.803419 -7.277797 28.595709 -37.306378 -42.482116 72.538032 -7.833561 -20.840299 5.872756 -2.561307 -7.167234 -1.983079 -33.188468 26.619627 -63.797507 28.442945 -2.446350 -23.710350 -35.505691 -16.630490 15.900721 -9.186452 -27.021192 47.234632 19.799962 20.603494 -16.000382 -6.749573 -20.213343 -8.030922
51.028268 38.889235 0.017308 13.480950 -17.793502 -4.158687 0.000000 0.000000 0.000000 28.802772 24.435503 -4.919904 44.903464 4.542060 -10.264557 -32.265825 8.394945 -12.334244 1.622706 1.521257 -40.535023 -17.057929 -5.679103 19.666568 -12.510594 -23.826801 53.722221 -5.818166 -22.122924 2.789399 -3.035369 -12.012243 -3.172790 -44.765946 31.827539 -72.152069 14.936562 11.874781 1.597413 3.916005 -28.346772 -22.337204 -6.395101 -28.197810 38.402729 21.657300 15.100605 16.260536 -0.752585 -17.642966 -33.337010
51.171790 38.652024 0.015128 16.520698 4.397954 0.908340 0.000000 0.000000 0.000000 22.420191 39.037507 -1.768508 34.622475 22.674949 -2.513208 -44.537981 6.154674 -29.703190 2.105984 -4.539944 -37.015926 -11.953393 -4.060594 13.952699 1.446758 -15.180186 39.697835 -3.989812 -24.592664 0.711439 -2.469551 -12.051539 -3.085908 -49.741099 20.101774 -70.719611 11.376824 16.143644 31.585343 27.062471 -42.758225 -41.358045 -2.598377 -26.957514 32.836344 25.580855 23.732880 30.805762 5.857045 -21.281678 -45.346803
51.217011 38.329145 0.009944 18.183881 18.991778 3.970267 0.000000 0.000000 0.000000 17.439919 49.371470 0.065801 26.968816 34.325467 3.164947 -52.988233 -5.897718 -16.318308 15.937555 -9.250580 -54.397661 -8.232579 -3.069713 8.623923 11.827979 -5.526658 30.930586 -2.709503 -26.695928 -0.670116 -2.262294 -12.129688 -3.171625 -53.293950 13.866350 -72.689970 8.324988 18.795034 50.954775 35.686956 -54.522434 -45.323077 -1.051223 -26.244002 28.698733 27.962764 26.469677 43.008632 8.973785 -20.700353 -55.329280
49.187420 39.283803 0.009033 17.797593 34.009654 6.279620 0.000000 0.000000 0.000000 -0.161853 57.865598 -10.065945 43.677355 45.333616 40.462589 -64.703442 -10.156494 -21.592314 16.625741 -16.925191 -46.216520 -5.664373 -2.752612 4.825538 15.371246 -6.634427 25.268970 -1.055903 -25.036168 -0.662932 -1.465129 -10.178913 -2.479034 -56.952646 8.320517 -75.074246 12.787660 29.993016 65.922657 42.123974 -44.361032 -59.564878 3.184746 -28.751826 30.230515 33.573769 34.911256 62.397161 22.388804 -24.461117 -65.726304
45.577954 33.909646 0.008070 10.862426 27.142242 4.240294 0.000000 0.000000 0.000000 -2.023067 56.873046 -8.031706 27.152750 51.022242 22.803823 -64.301712 -22.028288 -13.701494 14.346706 -27.564462 -35.211567 -3.890305 -2.960509 3.242913 27.822407 2.747294 28.039627 -0.574623 -24.802549 3.678002 -0.942722 -7.916408 -1.374541 -33.585947 -0.514478 -84.081566 -8.066867 26.564029 25.805169 23.468613 -44.762064 -10.941242 0.568460 -20.425685 28.935471 22.948065 45.430024 51.842329 44.295302 -30.909757 -76.611143
46.784481 33.855131 0.013895 6.633152 17.909777 2.998991 0.000000 0.000000 0.000000 -4.356508 57.550081 -7.292934 16.896941 50.634461 12.370311 -54.540679 -20.521456 -17.687026 11.232848 -30.550565 -25.249099 -2.574566 -4.104086 2.614484 38.417504 -3.279199 38.810539 -1.119839 -22.627195 5.831516 -0.745861 -6.625095 -0.594856 -20.173013 -2.746745 -78.249226 -30.696101 35.429445 -13.079645 4.165697 -51.188448 12.844963 0.142182 -6.501019 45.734449 46.879248 50.000803 71.707296 50.527500 -41.384348 -78.327691
46.937938 33.591849 0.011997 3.509978 14.134352 2.046576 0.000000 0.000000 0.000000 -6.187592 59.800734 -7.109518 9.865499 50.079579 5.084581 -46.356911 -10.975923 -17.787690 7.599134 -30.371409 -18.206467 -1.781937 -3.812086 2.019776 39.091363 -14.534906 50.182072 -1.637971 -20.115715 6.577567 -0.616735 -5.256499 -0.186947 -10.923635 -5.542481 -71.435752 -49.075702 44.930728 -40.279965 -28.687000 -56.175582 47.747934 2.532928 5.354418 59.612748 56.387654 56.188207 74.064036 65.954059 -50.946052 -90.710321
46.965320 33.704373 0.016301 -0.354191 2.636195 2.036368 0.000000 0.000000 0.000000 -10.052967 61.253816 -8.616975 4.602074 47.074045 -1.584391 -45.529089 -7.299141 -12.861712 5.083181 -25.663485 -12.323119 -0.449381 -11.534609 2.933121 44.577454 -5.030205 57.432975 -4.113924 -21.130689 9.169052 -0.016017 -5.502823 -1.221614 -3.689379 -11.265274 -68.968493 -41.910239 44.537991 -53.233764 -33.666125 -45.232390 54.767863 12.152076 8.597321 72.549279 56.029594 52.856284 75.111721 53.086516 -48.703733 -75.721051
